<?xml version="1.0" encoding="utf-8"?>
<!-- Generator: Adobe Illustrator 16.0.0, SVG Export Plug-In . SVG Version: 6.00 Build 0)  -->
<!DOCTYPE svg PUBLIC "-//W3C//DTD SVG 1.1//EN" "http://www.w3.org/Graphics/SVG/1.1/DTD/svg11.dtd">
<svg version="1.1" id="Layer_1" xmlns="http://www.w3.org/2000/svg" xmlns:xlink="http://www.w3.org/1999/xlink" x="0px" y="0px"
	 width="512px" height="512px" viewBox="0 0 512 512" enable-background="new 0 0 512 512" xml:space="preserve">
<g>
	<path fill="#0000FF" d="M256,497c-64.374,0-124.894-25.068-170.413-70.587C40.068,380.894,15,320.373,15,256
		c0-64.374,25.068-124.894,70.587-170.413C131.106,40.068,191.626,15,256,15c64.373,0,124.894,25.068,170.413,70.587
		C471.932,131.106,497,191.626,497,256c0,64.373-25.068,124.894-70.587,170.413C380.894,471.932,320.373,497,256,497z"/>
	<path fill="#FFFFFF" d="M256,30c30.523,0,60.117,5.971,87.96,17.748c26.908,11.381,51.081,27.681,71.846,48.446
		c20.766,20.765,37.065,44.938,48.446,71.846C476.028,195.883,482,225.477,482,256c0,30.523-5.972,60.117-17.748,87.96
		c-11.381,26.908-27.681,51.081-48.446,71.846c-20.765,20.766-44.938,37.065-71.846,48.446C316.117,476.028,286.523,482,256,482
		c-30.523,0-60.117-5.972-87.96-17.748c-26.909-11.381-51.081-27.681-71.846-48.446c-20.765-20.765-37.065-44.938-48.446-71.846
		C35.971,316.117,30,286.523,30,256c0-30.523,5.971-60.117,17.748-87.96c11.381-26.909,27.681-51.081,48.446-71.846
		s44.938-37.065,71.846-48.446C195.883,35.971,225.477,30,256,30 M256,0C114.615,0,0,114.615,0,256s114.615,256,256,256
		s256-114.615,256-256S397.385,0,256,0L256,0z"/>
</g>
</svg>
